<svg width="149" height="350" viewBox="0 0 149 350" fill="none" xmlns="http://www.w3.org/2000/svg">
<path fill-rule="evenodd" clip-rule="evenodd" d="M147.077 0C180.492 0 212.936 11.2746 238.517 31.7494V31.7486C271.932 58.4781 291.586 96.484 293.964 138.739C296.24 180.457 280.638 221.273 251.173 250.714L153.502 347.033C149.718 350.78 143.156 350.746 139.373 346.999L43.0813 250.783C13.5501 221.275 -2.08612 180.426 0.224142 138.74C2.56757 96.4865 22.2553 58.4807 55.6367 31.7494C81.1839 11.2746 113.662 0 147.077 0ZM81.5669 146.908C81.5669 183.073 110.997 212.481 147.191 212.481C183.385 212.481 212.85 183.074 212.816 146.908C212.816 110.743 183.386 81.335 147.191 81.335C110.998 81.335 81.5669 110.742 81.5669 146.908Z" fill="white"/>
</svg>
